<?xml version="1.0" encoding="utf-8"?>
<!-- Generator: Adobe Illustrator 22.1.0, SVG Export Plug-In . SVG Version: 6.00 Build 0)  -->
<svg version="1.1" id="Layer_1" xmlns="http://www.w3.org/2000/svg" xmlns:xlink="http://www.w3.org/1999/xlink" x="0px" y="0px"
	 viewBox="0 0 300 194.3" style="enable-background:new 0 0 300 194.3;" xml:space="preserve">
<style type="text/css">
	.st0{fill:#E6E7E8;}
	.st1{fill:#FFFFFF;}
	.st2{fill:none;}
	.st3{fill:#E6E6E6;}
	.st4{fill:#808285;}
	.st5{fill:#1B75BC;}
	.st6{fill:#FBB040;}
	.st7{fill:#ED1C24;}
	.st8{fill:#006838;}
	.st9{fill:#BCBEC0;}
	.st10{fill:url(#SVGID_1_);}
	.st11{fill:url(#SVGID_2_);}
	.st12{fill:url(#SVGID_3_);}
	.st13{fill:url(#SVGID_4_);}
	.st14{fill:url(#SVGID_5_);}
	.st15{fill:url(#SVGID_6_);}
	.st16{fill:url(#SVGID_7_);}
	.st17{fill:url(#SVGID_8_);}
	.st18{fill:url(#SVGID_9_);}
	.st19{fill:url(#SVGID_10_);}
	.st20{fill:url(#SVGID_11_);}
	.st21{fill:url(#SVGID_12_);}
	.st22{fill:url(#SVGID_13_);stroke:#FFFFFF;stroke-width:2;stroke-miterlimit:10;}
</style>
<g>
	<g>
		<path class="st0" d="M270.6,75.6l2.2-3.4c-18.3-11.9-40.6-14.5-60.9-7.4H88.3c-20.3-7.2-42.6-4.6-60.9,7.4l2.2,3.3
			C19.6,82,11.3,91.3,6,102.9c-15,32.7-0.6,71.4,32.2,86.5c25.1,11.5,53.6,5.8,72.4-12.2h79c5.1,4.9,11.1,9.1,18,12.2
			c32.8,15,71.6,0.6,86.6-32.1C307.7,127.6,297.1,93,270.6,75.6z"/>
		<path class="st1" d="M270.6,62.4l2.2-3.4C254.6,47,232.3,44.4,212,51.6H88.3C68,44.4,45.7,47,27.4,58.9l2.2,3.3
			C19.6,68.7,11.3,78,6,89.6c-15,32.7-0.6,71.4,32.2,86.5c25.1,11.5,53.6,5.8,72.4-12.2h79c5.1,4.9,11.1,9.1,18,12.2
			c32.8,15,71.6,0.6,86.6-32.1C307.7,114.3,297.1,79.7,270.6,62.4z"/>
		<g>
			<path class="st2" d="M216.8,78.3c-3.6,3.3-3.8,9-0.3,12.6c3.5,3.5,8.9,3.5,12.5,0.1c3.5-3.7,3.6-8.9,0.1-12.4
				C225.6,75,220.3,75,216.8,78.3z"/>
		</g>
		<g>
			<path class="st2" d="M258.3,92.1c3.5-3.3,3.7-8.7,0.3-12.4c-3.5-3.4-8.6-4-12.6-0.2c-3.3,3.1-3.8,8.5-0.1,12.3
				C249.2,95.3,254.7,95.5,258.3,92.1z"/>
		</g>
		<g>
			<path class="st2" d="M254,131.3c-3.5,3.2-4.1,8.7-0.4,12.6c3.2,3.4,8.6,3.8,12.4,0.3c3.4-3.4,3.9-8.7,0.3-12.4
				C263,128.2,257.8,127.9,254,131.3z"/>
		</g>
		<g>
			<path class="st2" d="M263.1,103.4c-3.5,3.3-3.8,8.9-0.5,12.3c3.7,4,9,4,12.7,0.3c3.3-3.2,3.8-8.3,0.2-12.1
				C272.5,100.3,266.6,100.1,263.1,103.4z"/>
		</g>
		<g>
			<path class="st3" d="M65.3,154.4c-5.3,0-10.6-1.1-15.7-3.4c-9.2-4.2-16.1-11.7-19.6-21.1c-3.5-9.4-3.1-19.7,1.1-28.8
				C35.2,92,42.8,85,52.2,81.5c9.4-3.5,19.7-3.1,28.8,1.1c18.9,8.7,27.2,31,18.6,49.9l0,0C93.3,146.3,79.6,154.4,65.3,154.4z"/>
			<g>
				<path class="st4" d="M86.6,109.6H73.3V96.3c0-2-1.6-3.6-3.6-3.6h-6.8c-2,0-3.6,1.6-3.6,3.6v13.3H45.9c-2,0-3.6,1.6-3.6,3.6v6.8
					c0,2,1.6,3.6,3.6,3.6h13.3v13.3c0,2,1.6,3.6,3.6,3.6h6.8c2,0,3.6-1.6,3.6-3.6v-13.3h13.3c2,0,3.6-1.6,3.6-3.6v-6.8
					C90.2,111.2,88.6,109.6,86.6,109.6z"/>
			</g>
		</g>
		<path class="st3" d="M285.3,102.4c-0.9-3.3-2.4-6.5-3.8-9.8c-1.8-4.2-4.5-7.8-7.4-11.3c-3.4-4-7.3-7.4-11.6-10.3
			c-5.5-3.7-11.4-6.4-17.8-7.9c-4.6-1-9.3-1.7-14-1.3c-2.7,0.2-5.4,0.9-8,1.3c-3.5,0.6-6.7,2-9.8,3.7c-0.6,0.3-1.2,0.7-1.8,1
			c-2.4,1.4-4.6,3.1-6.6,5.1c-3,3.1-5.4,6.6-6.7,10.6c-0.9,2.9-1.3,6-1.7,9c-0.5,4.2,0.5,8.3,2.1,12.3c1.7,4.2,4.6,7.8,7.2,11.5
			c1.5,2.2,3.2,4.2,3.4,7.1c0.3,2.8-1.6,6.6-4,8.1c-2.1,1.3-4.4,1.4-6.8,1.3c-3.8-0.2-7,2.4-8.1,5.1c-1.4,3.3-0.9,6.4,1.3,9.4
			c3.4,4.7,7.5,8.8,12.2,12.1c2.4,1.7,5,3.2,7.7,4.5c1.8,0.8,3.6,1.6,5.5,2.2c4.7,1.6,9.5,2.7,14.6,2.9c3.9,0.2,7.8,0,11.7-0.6
			c2.1-0.3,4.2-1,6.3-1.5c3.9-0.9,7.5-2.6,10.9-4.5c4.4-2.5,8.4-5.5,10.8-7.9c5.4-5.5,8.9-10.4,11.4-16c1.8-3.9,3.1-7.9,4-12.1
			C287.8,118.5,287.5,110.4,285.3,102.4z"/>
		<g>
			<g>
				<path class="st4" d="M124.6,148.3L124.6,148.3c-1.3-1.2-1.3-3.3,0-4.5l10.8-10.7c1.3-1.2,3.3-1.2,4.5,0h0c1.3,1.2,1.3,3.3,0,4.5
					l-10.8,10.7C127.9,149.6,125.9,149.6,124.6,148.3z"/>
			</g>
			<g>
				<path class="st4" d="M160.1,148.3L160.1,148.3c-1.3-1.2-1.3-3.3,0-4.5l10.8-10.7c1.3-1.2,3.3-1.2,4.5,0l0,0
					c1.3,1.2,1.3,3.3,0,4.5l-10.8,10.7C163.4,149.6,161.3,149.6,160.1,148.3z"/>
			</g>
		</g>
		<path class="st5" d="M266.9,82.2c0.3,0.3,0.6,0.6,0.9,0.9c0,0,0.1-0.1,0.1-0.1c-0.5-0.6-1-1.1-1.6-1.7c0,0,0-0.1,0.1-0.1
			c0.1,0.1,0.2,0.2,0.3,0.3c0.1,0.1,0.2,0.2,0.3,0.3c0.7,0.8,1.5,1.6,2,2.5c0.5,0.8,0.7,1.8,1,2.7c0.3,1.1,0.7,2.2,0.7,3.4
			c0.2,3.3-0.9,6.3-2.9,8.9c-0.3,0.5-0.9,0.8-1.4,1.1c-1.3,0.7-2.5,1.5-3.9,2.1c-0.6,0.3-1.5,0-2.2,0c-0.1,0-0.1-0.1-0.2-0.1
			c-1,0.1-2,0.2-3.1,0.4c-3,0.5-5.9,0.3-8.2-1.9c-0.8-0.7-1.4-1.7-2-2.5c-0.1-0.2-0.1-0.5-0.1-0.8c-0.1-0.4-0.1-0.7-0.2-1.1
			c-0.2-0.6-0.4-1.3-0.6-1.9c-0.1-0.2,0-0.5,0-0.5c-0.1-0.5-0.2-0.9-0.3-1.3c0-0.4,0-0.7,0-1.1c0-0.4,0.2-0.5,0.3-0.4
			c0.1,0.8,0.1,1.5,0.2,2.2c0.2,0.1,0.4,0.1,0.6,0.2c0.1-0.5,0.1-0.9,0.2-1.3c0-0.3,0-0.6,0-1c-0.1-0.5,0.2-0.9-0.1-1.4
			c-0.2-0.3,0.1-0.9,0.2-1.4c0.3-1.2,0.6-2.4,1-3.6c0.1-0.4,0.4-0.7,0.6-1c0.3-0.6,0.6-1.2,1-1.8c0.5-0.6,1-1.3,1.7-1.7
			c1-0.6,2.1-0.9,3.2-1.3c0.2-0.1,0.4,0,0.5,0.1c0.1,0,0.2,0.1,0.3,0.1c1.2-0.1,2.4-0.2,3.6-0.2c0.6,0,1.2,0.1,1.7,0.2
			c1.3,0.4,2.7,0.7,4,1.2c0.3,0.1,0.6,0.4,0.9,0.5c0,0.1-0.1,0.2-0.1,0.3c-0.4-0.3-0.7-0.5-1.1-0.8c0,0-0.1,0.1-0.1,0.1
			c0.1,0.2,0.2,0.3,0.3,0.4c1,0.6,2,1.2,2.7,2.2c0.6,1,1,2,1.6,3c0.7,1,0.8,2.1,1,3.2c0.1,0,0.2,0,0.2,0c-0.2-0.9-0.4-1.8-0.6-2.6
			c-0.3-0.9-0.4-1.8-1.2-2.5C267.9,83.8,267.4,82.9,266.9,82.2C266.9,82.2,266.9,82.2,266.9,82.2z M263,82.2
			c-0.1,0.1-0.1,0.2-0.2,0.3c0.4,0.3,0.8,0.5,1.3,0.8c0-0.1,0.1-0.1,0.1-0.2C263.9,82.7,263.5,82.4,263,82.2z"/>
		<path class="st6" d="M273,116c0.8,0.5,1,1.2,1.2,2c0.2,0.8,0.5,1.5,0.6,2.3c0.2,0.9,0.2,1.8,0.4,2.7c0-0.8,0.1-1.5,0.1-2.3
			c0,0.1,0.1,0.2,0.1,0.3c0,1.4,0.3,2.8-0.4,4.1c-0.4,0.7-0.8,1.5-0.9,2.3c-0.1,1.2-1,1.8-1.6,2.6c-0.7,0.9-1.6,1.6-2.6,2.3
			c-0.7,0.6-1.6,1-2.3,1.5c-1.1,0.7-2.3,0.5-3.5,0.5c-1.5,0-3-0.3-4.5-0.7c-0.1,0-0.2-0.1-0.3-0.1c0.1,0,0.2-0.1,0.3-0.1
			c-0.4-0.2-0.8-0.3-1.2-0.5c0.1-0.1,0.2-0.2,0.3-0.3c-0.1,0-0.1-0.1-0.2-0.1c-0.6,0.3-0.8-0.1-1-0.5c-0.1-0.3-0.4-0.5-0.6-0.7
			c-0.3-0.3-0.6-0.7-1-1c-0.6-0.4-0.3-1.1-0.6-1.7c-0.2-0.3-0.4-0.7-0.6-1c-0.1-0.2-0.1-0.3-0.1-0.5c-0.2-1.4-0.2-2.9,0-4.3
			c0-0.1,0-0.1-0.1-0.2c-0.1,0.2-0.1,0.4-0.2,0.6c-0.1,0.8-0.2,1.6-0.3,2.5c0,0.2-0.2,0.5-0.3,0.7c0,0-0.1,0-0.1,0
			c0-0.1,0-0.3-0.1-0.4c0-0.8,0.1-1.6-0.1-2.4c-0.1-0.3-0.1-0.5,0.1-0.8c0.2-0.3,0.3-0.6,0.5-1c0.1-0.2,0.2-0.4,0.3-0.8
			c-0.3,0.1-0.4,0.2-0.5,0.2c0-0.9,0.4-1.6,1-2.2c0.6-0.6,1.2-1.2,1.7-1.9c-0.2-0.1-0.4-0.2,0-0.5c2.1-1.3,4.2-2.6,6.7-3
			c0.7-0.1,1.4-0.1,2.2-0.1c0.7,0,1.3-0.2,2-0.2c1.4,0.1,2.7,0.5,4,1.2C272.4,114.8,272.7,115.4,273,116c0,0-0.1-0.1-0.2-0.1
			c-0.4-0.5-0.8-1.1-1.6-1.2c-0.1,0-0.2-0.1-0.3-0.1c-0.4-0.2-0.8-0.4-1.2-0.6c0,0.1-0.1,0.1-0.1,0.2c0.4,0.2,0.9,0.5,1.3,0.7
			c0,0,0,0.1-0.1,0.1c-0.4-0.2-0.9-0.4-1.3-0.6c-0.6-0.2-1.2-0.4-1.8-0.5c0,0.1,0,0.2-0.1,0.3c0.6,0.1,1.3,0.2,1.9,0.3
			c0.5,0.3,0.9,0.7,1.5,0.9c0.8,0.2,0.8,0.9,1.2,1.3c0.2,0.2,0.2,0.5,0.3,0.6c0.4,0.5,0.8,0.9,0.8,1.6c0,0.2,0,0.5,0.1,0.7
			c0.3,0.7,0.7,1.4,0.7,2.3c0,0.2,0.1,0.4,0.1,0.6c0.1-0.5,0.3-1,0.2-1.5c-0.1-0.4,0.2-0.9-0.5-1.1c-0.2-0.1-0.3-0.6-0.3-0.9
			c-0.1-0.5-0.4-1-0.3-1.7C273.6,116.7,273.2,116.3,273,116z M254.9,126.5c0,0,0.1,0,0.1,0c0-0.9,0-1.9,0-2.8c0,0-0.1,0-0.1,0
			C254.9,124.7,254.9,125.6,254.9,126.5z"/>
		<path class="st7" d="M232.8,158c0.3,0,0.5-0.1,0.7,0c0.3,0.1,0.5,0.3,0.9,0.5c-0.4-0.6-0.8-1.2-1.2-1.7c-1.1-1.8-1.6-3.8-1.6-5.9
			c0-0.8,0.1-1.6,0.2-2.4c0-0.3,0.3-0.6,0.3-0.8c-0.1-0.8,0.4-1.4,0.7-2c-0.4,0.4-0.7,0.8-1.1,1.3c0.1-0.8,0.5-1.3,1-1.8
			c0.6-0.6,1.1-1.3,1.7-1.8c0.4-0.4,1-0.7,1.5-1.1c0.8-0.7,1.7-1.2,2.7-1.6c0.7-0.3,1.4-0.7,2.2-0.9c0.1,0,0.2-0.2,0.4-0.1
			c0.4,0,0.8-0.1,1.2-0.1c0.2,0,0.3-0.2,0.5-0.2c0.9,0.1,1.7,0.4,2.6,0.4c0.8,0,1.5,0.2,2.1,0.6c1.3,0.8,2.7,1.5,3.8,2.6
			c0.6,0.6,0.9,1.4,1.3,2.1c0,0-0.1,0.1-0.1,0.1c-0.4-0.5-0.8-0.9-1.1-1.4c0,0-0.1,0-0.1,0.1c0.2,0.5,0.4,0.9,0.7,1.4
			c0.3,0.5,0.5,0.9,0.3,1.6c-0.1,0.4,0.1,1,0.1,1.5c0,1.2-0.1,2.3-0.2,3.5c0,0.6-0.1,1.1-0.2,1.7c0,0.3-0.2,0.6-0.3,0.9
			c-0.1,0.5-0.2,1-0.2,1.6c0.5-0.9,0.9-1.9,1.4-2.8c-0.7,1.8-1.3,3.6-2.9,4.9c-0.1,0.1-0.2,0.3-0.2,0.4c0,0,0,0.1,0,0.1
			c-1-0.1-0.3,1-0.8,1.2c-0.1,0.1-0.1,0.3-0.2,0.3c-0.6,0.2-1.3,0.4-1.9,0.6c-0.7,0.2-1.4,0.5-2.1,0.8c0.1,0.1,0.1,0.3,0.2,0.5
			c-0.4,0-0.9,0.1-1.3,0.1c-0.3,0-0.5-0.2-0.8-0.1c-1.4,0.2-2.7,0-4.1-0.4c-0.9-0.3-1.8-0.5-2.8-0.7c-1.2-0.3-2.1-1-2.9-1.9
			c-0.1-0.1-0.2-0.1-0.3-0.2C232.9,158.4,232.6,158.3,232.8,158L232.8,158z M252.2,146.5c-0.2,1-0.1,2.3,0.3,2.7c0-0.5,0-1,0-1.5
			C252.5,147.3,252.3,147,252.2,146.5z"/>
		<path class="st8" d="M224.7,98.9c1-0.1,1.9-0.2,2.9-0.3c0,0,0.1,0,0.1,0c0,0.1,0,0.1,0.1,0.2c-0.7,0.2-1.3,0.4-2,0.6
			c0,0,0,0.1,0,0.1c0.7,0,1.4,0,2.1,0c0,0.1,0,0.1,0,0.2c-0.3,0.1-0.6,0.2-1,0.2c-1.3,0.1-2.6,0.1-3.8,0.2c-0.5,0-0.9,0-1.4,0.2
			c-1.5,0.4-2.9,0.1-4.4-0.1c-0.9-0.1-1.8-0.6-2.9-0.3c-0.2,0.1-0.6-0.2-0.9-0.4c-0.3-0.2-0.5-0.4-0.7-0.6c0.2-0.1,0.6-0.3,1-0.6
			c-0.6-0.4-1-0.6-1.5-0.9c0-0.1,0-0.1,0-0.2c0.9,0.2,1.8,0.5,2.7,0.7c0-0.1,0.1-0.2,0.1-0.3c-0.8-0.4-1.5-0.7-2.3-1.1
			c-0.1-0.2-0.5,0.5-0.6-0.4c0-0.3-0.7-0.5-1-0.8c-0.9-1.1-1.7-2.2-2.6-3.3c0.7-0.4,0.3-0.8,0.2-1.1c-0.1-0.4-0.4-0.7-0.5-1.1
			c0.2,0,0.3,0.1,0.5,0.1c0-0.2,0.1-0.4,0.1-0.6c-0.2-1.9-0.3-3.8-0.5-5.8c0.9,0,1-0.5,1-1.2c0-0.5,0.2-0.8,0.6-1.2
			c0.6-0.6,1-1.4,1.4-2.1c0-0.1,0.1-0.1,0.2-0.1c1.1-0.8,2.2-1.5,3.3-2.3c0.8-0.5,1.6-1,2.4-1.5c0-0.1-0.1-0.2-0.1-0.2
			c-0.5,0.2-0.9,0.4-1.4,0.5c0,0-0.1-0.2-0.2-0.2c-0.2,0-0.3,0.1-0.5,0.2c-0.7,0.3-1.4,0.6-2.2,1c0.1-0.4,0.1-0.5,0.2-0.8
			c-0.8,0.4-1.5,0.7-2.2,1c0.3-0.3,0.5-0.6,0.8-0.9c-1.3,0.3-2,1.1-2.8,1.9c0.7-1.1,1.2-2.2,2.5-2.6c0.2,0,0.4,0.1,0.5,0
			c0.7-0.3,1.4,0.2,2.1-0.3c0.3-0.2,0.7-0.2,1.1-0.3c1.2-0.3,2.3-0.7,3.5-0.9c0.5-0.1,1.1-0.2,1.7,0.2c0.3,0.2,0.8-0.1,1.3-0.1
			c0.9,0,1.8,0,2.6,0.5c0.1-0.1,0.3-0.2,0.5-0.4c0.2,0.2,0.3,0.3,0.5,0.4c-0.1-0.5-1.3-1.3-1.8-1.4c-1.4-0.1-2.8-0.2-4.2-0.3
			c-0.4,0-0.9-0.1-1.3,0c-1.7,0.4-3.4,0.9-5.1,1.4c0.4-0.3,0.7-0.5,1.1-0.7c0.3-0.2,0.6-0.3,0.9-0.5c0.5-0.4,0.9-0.8,1.7-0.7
			c1.6,0.2,3.3,0.2,4.9,0.3c2.3,0.3,4.6,0.6,6.6,2c1,0.7,1.9,1.5,3,2.4c-0.3,0.1-0.5,0.1-0.8,0.2c1,1.5,2,2.9,3,4.3
			c0.1,0,0.1-0.1,0.2-0.1c-0.1-0.4-0.3-0.7-0.4-1.1c0.1,0,0.2-0.1,0.3-0.1c0.3,0.7,0.6,1.3,0.8,2c0.2,0.5,0.7,0.8,1.3,0.4
			c0.6,2.4,0.1,4.6-0.6,6.8c0-0.3,0.1-0.6,0.1-0.9c-0.1,0-0.2-0.1-0.3-0.1c-0.3,0.8-0.8,1.6-0.9,2.4c-0.1,1-0.7,1.8-1.1,2.6
			c-0.3,0.6-0.8,1-1.2,1.6c-1,1.3-2.3,2-3.7,2.5c-0.3,0.1-0.6,0.4-0.9,0.6c-0.3,0.2-0.7,0.4-1.2,0.5c0.3-0.2,0.6-0.4,1-0.7
			c-2.4,0.3-4.6,0.5-6.8,0.8c0,0.1,0,0.3,0,0.5c-0.9-0.2-1.7-0.3-2.6-0.5c0,0.1-0.1,0.2-0.1,0.2c0.3,0.2,0.5,0.5,0.8,0.5
			c1.9,0.1,3.8,0.1,5.7,0.2C224.2,99.1,224.5,99,224.7,98.9L224.7,98.9z M234.6,87.8c0.9-0.8,1-2.7,0.3-3.9c0,0.4,0,0.7-0.1,0.9
			c-0.1,0.2-0.2,0.5-0.3,0.7c0.1,0.2,0.3,0.5,0.3,0.6C234.1,86.7,234.7,87.3,234.6,87.8z M217.9,76.9c-0.1-0.1-0.2-0.3-0.2-0.4
			c-0.8,0.5-1.5,1-2.3,1.5c0,0.1,0.1,0.2,0.1,0.3c0.5-0.1,0.9-0.2,1.5-0.3c-0.4-0.4-0.6-0.6,0-0.7C217.3,77.2,217.6,77,217.9,76.9z
			 M234.3,83.6c0.1,0,0.1,0,0.2-0.1c0.1-1.3-0.3-2.3-1.1-2.3C233.7,82,234,82.8,234.3,83.6z M211.1,82.1c-0.8,0.4-0.8,1.2-0.2,2.6
			C210.9,83.8,211,83,211.1,82.1z M235.5,82.6c-0.1,0-0.2,0-0.4,0.1c0.1,0.6,0.2,1.1,0.3,1.7c0.1,0,0.2,0,0.4-0.1
			C235.7,83.8,235.6,83.2,235.5,82.6z M220.4,97.3c0.3,0.2,0.5,0.3,0.6,0.4c0.4-0.2,0.8-0.4,1.2-0.6c0-0.1-0.1-0.1-0.1-0.2
			C221.5,97,221,97.1,220.4,97.3z"/>
	</g>
	<g>
		<g>
			<rect x="197.3" y="19.6" class="st9" width="9.9" height="3.8"/>
			<path class="st9" d="M114,69.9c-0.1,0.1-0.3,0.8-0.2,1c0.4,1.1,1.1,2,1.9,2.8l2.4-6.4C116.7,68.2,115.3,69,114,69.9z"/>
			<rect x="40.5" y="19.6" class="st9" width="9.9" height="3.8"/>
			<path class="st9" d="M197.3,38v8.4c4.4,1.2,7.6,3.1,9.9,6.1V38H197.3z"/>
			<rect x="249.6" y="19.6" class="st9" width="9.9" height="28.3"/>
			<path class="st9" d="M71.3,62.5v-2.8V32.3v-0.5V29V13.9V11h-2.8h-3.3V7.8V4.9h-2.8H22.5h-2.8v2.8v51.9v2.8h2.8h15.1h2.8v-2.8V38
				h9.9v21.7v2.8h2.8h15.1H71.3z M50.4,19.6v3.8h-9.9v-3.8H50.4z"/>
			<path class="st9" d="M221.9,11V7.8V4.9h-2.8h-39.7h-2.8v2.8v35.9c-0.8,0.2-1.6,0.3-2.4,0.4c-1.4,0.1-2.8,0.1-4.2,0
				c-1.1,0-2.3,0-3.4,0c-1.3,0-2.1-0.2-2.9-0.9c-0.9-0.8-2.1-1.2-3.1-1.5V19.6h12.5h2.8v-2.8v-9V4.9h-2.8h-45.9h-2.8v2.8v9v2.8h2.8
				h12.5v26.5c-0.2,0.1-0.3,0.2-0.5,0.2c-0.1,0.1-0.3,0.1-0.4,0.2c-0.2-2.6-1.2-3.8-2.1-4.5c-0.9-0.7-2.6-1.2-5.2-0.3
				c-3.6,1.2-7.7,2.8-11.4,5c-0.6,0.4-1.2,0.8-1.9,1.1H94.9c-0.7-0.7-1.4-1.4-2.1-2.1V38h15.6h2.8v-2.8v-9v-2.8h-2.8H92.8v-3.8h27.9
				h2.8v-2.8v-9V4.9h-2.8H74.8h-2.8v2.8v51.9v2.8h2.8h13.9c0.6,0.8,1.2,1.5,1.8,2.3c0.4,0.6,0.6,1.1,0.6,1.5
				c-0.1,0.4-0.5,0.7-0.9,0.9c-0.9,0.5-1.7,0.9-2.6,1.4c-1.6,0.8-3.2,1.6-4.7,2.6C77,75,70.7,79,64.5,83.3c-2.7,1.9-4.5,3.9-5.5,6.2
				l-0.3,0.7l1.3,2.3l4.6-1.9l-0.4,0.6l1.4,2.3l2.2-0.9c0.8-0.3,1.6-0.7,2.3-1c0.8-0.4,1.5-0.8,2.3-1.3c2-1.3,3.4-2,5.3-1.5
				c0.8,0.2,1.4-0.2,1.8-0.4l0.1-0.1c0.8-0.4,1.5-0.8,2.3-1.2c1.5-0.8,3.1-1.6,4.6-2.4c0.5-0.2,1-0.5,1.5-0.9
				c1.5-0.9,2.3-1.4,3.5-0.8c0.8,0.4,1.6-0.1,2-0.3c0.1,0,0.1-0.1,0.2-0.1l7.2-3.4l0.1,0c0.4,0.3,0.8,0.5,1.1,0.7l0.6,0.4
				c0.6,0.4,1.3,0.9,1.8,1.3c0.1,0.1,0.3,0.3,0.4,0.5c0.3,0.3,0.5,0.7,0.9,1.1c4.8,3.9,9.6,7.8,14.4,11.7c0.8,0.6,1.5,0.8,2,0.8
				c0.3,0,0.5,0,0.7-0.1c0.6-0.2,1.5-0.7,2-2.2l0.1-0.4c0-0.1,0-0.1,0-0.2c1.3-0.4,2-1.2,2.3-2.6c0,0,0.1,0,0.1,0
				c1.4,0.3,2.8,0.6,4.2,0.2c2.3-0.6,4.5-1.7,6.6-2.7c0.6-0.3,1.1-0.5,1.7-0.8c0.9-0.4,2-1.8,1.7-3c0-0.2,0-0.2,0-0.2
				c0-0.1,0.4-0.3,0.5-0.5c0.2-0.1,0.3-0.3,0.5-0.4c0.7-0.6,1.2-1.2,1.6-1.8c0.3-0.4,0.5-0.9,0.8-1.3c0.4-0.7,0.8-1.3,1.2-1.8
				c1.3-1.3,2.7-2.6,4.1-3.8c1-0.9,2-1.8,3-2.8c1.2-1.2,2.4-2.4,3.5-3.5c0.5-0.5,1-1.1,1.5-1.6l0.8-0.9l-2-2.8l-1.1,0.5
				c-0.2,0.1-0.4,0.2-0.6,0.3c-0.5,0.2-1.1,0.5-1.6,0.8c-1.6,1.1-3.2,2.3-4.8,3.4c-2.6,1.9-5.3,3.8-8,5.6c-2.6,1.8-5.5,3.5-8.4,5
				c-1.4,0.8-2.7,0-3.5-0.7c-0.4-0.3-0.4-0.5,0.1-1.8c0.1-0.2,0.1-0.4,0.2-0.6l0.1-0.4c0.2-0.8,0.5-1.5,0.8-2.2
				c1.6-4,4.5-7.8,9.1-11.7v1.5h2.8h15.1h2.8v-2.8v-0.9c0.7-0.8,1.3-1.7,1.8-2.5c1.3-2.1,3.3-2.9,5.4-2.1c0.4,0.2,0.8,0.4,0.9,0.6
				c0.1,0.2,0,0.6-0.1,0.8c-0.4,0.8-0.7,1.6-1.1,2.5c-1.3,3-2.6,6.1-4.2,8.9c-1.1,1.9-2.5,3.5-4.1,5.2c-0.5,0.6-1.1,1.2-1.6,1.8
				c-0.9,1-1.8,2-2.8,3.1c-0.5,0.5-0.9,1-1.4,1.5l-1.5,1.6l2.1,0.7c0.6,0.2,1.2,0.4,1.5,0.6c-0.1,0.3-0.2,0.8-0.3,1.1
				c-1.1,3.7-1.3,6.7-0.9,9.5l0.2,1l0.9,0.2c0.3,0.1,0.5,0.1,0.8,0.2c0.7,0.2,1.5,0.4,2.3,0.3c0.4-0.1,0.9-0.1,1.5-0.2
				c1.5-0.1,3.7-0.3,5.1-2.3c1.7-2.4,3.3-4.8,5.2-6.9c0.6-0.7,1.1-1.5,1.6-2.3c1.1-1.8,1.8-2.9,3.5-3.3c1.3-0.3,2.6-0.7,3.8-1.1
				l0.7-0.2c1.4-0.5,2.8-0.9,4.2-1.3c3.4-1,7-2.1,10.4-3.6c2.9-1.3,5.5-3.2,8.1-5.1c0.7-0.5,1.4-1,2.1-1.5c1.2-0.9,2.4-2,3.4-3.4
				c0,0,0,0,0,0h2.2h15.1h2.8v-2.8V32.3v-0.5V29V13.9V11h-2.8H221.9z M207.2,19.6v3.8h-9.9v-3.8H207.2z M113.8,70.9
				c-0.1-0.3,0.1-0.9,0.2-1c1.3-0.9,2.7-1.7,4.1-2.5l-2.4,6.4C114.9,73,114.2,72.1,113.8,70.9z M197.3,46.3V38h9.9v14.4
				C204.9,49.5,201.7,47.5,197.3,46.3z"/>
			<path class="st9" d="M277.5,11h-3.3V7.8V4.9h-2.8h-33.6h-2.8v2.8V11h-3.3h-2.8v2.8v39.7v2.8h2.8h3.3v3.3v2.8h2.8h33.6h2.8v-2.8
				v-3.3h3.3h2.8v-2.8V13.9V11H277.5z M249.6,47.9V19.6h9.9v28.3H249.6z"/>
		</g>
		<g>
			<g>
				<g>
					<linearGradient id="SVGID_1_" gradientUnits="userSpaceOnUse" x1="45.4678" y1="29.8569" x2="45.4678" y2="3.7699">
						<stop  offset="0" style="stop-color:#FFFFFF"/>
						<stop  offset="0.1919" style="stop-color:#00AEEF"/>
						<stop  offset="1" style="stop-color:#2E3192"/>
					</linearGradient>
					<path class="st10" d="M52.3,55.9V31.4H38.7v24.6H21.5V2h41.7v6.1h6.1v17.1h-6.1v1.3h6.1v29.4H52.3z M52.3,20.4V13H38.7v7.4
						H52.3z"/>
					<path class="st1" d="M62.3,3v6.1h6.1v15.1h-6.1v3.3h6.1v27.4H53.3V30.4H37.7v24.6H22.5V3H62.3 M37.7,21.4h15.6V12H37.7V21.4
						 M64.3,1h-2H22.5h-2v2v51.9v2h2h15.1h2v-2V32.4h11.6v22.6v2h2h15.1h2v-2V27.5v-1.3v-2V9.1v-2h-2h-4.1V3V1L64.3,1z M39.7,14
						h11.6v5.4H39.7V14L39.7,14z"/>
				</g>
				<g>
					<linearGradient id="SVGID_2_" gradientUnits="userSpaceOnUse" x1="97.7344" y1="29.8569" x2="97.7344" y2="3.7699">
						<stop  offset="0" style="stop-color:#FFFFFF"/>
						<stop  offset="0.1919" style="stop-color:#00AEEF"/>
						<stop  offset="1" style="stop-color:#2E3192"/>
					</linearGradient>
					<polygon class="st11" points="73.8,55.9 73.8,2 121.7,2 121.7,13 90.9,13 90.9,20.4 109.4,20.4 109.4,31.4 90.9,31.4 
						90.9,44.9 121.7,44.9 121.7,55.9 					"/>
					<path class="st1" d="M120.7,3v9H89.9v9.4h18.4v9H89.9v15.6h30.7v9H74.8V3H120.7 M122.7,1h-2H74.8h-2v2v51.9v2h2h45.9h2v-2v-9
						v-2h-2H91.9V32.4h16.4h2v-2v-9v-2h-2H91.9V14h28.7h2v-2V3V1L122.7,1z"/>
				</g>
				<g>
					<linearGradient id="SVGID_3_" gradientUnits="userSpaceOnUse" x1="150.0005" y1="29.8569" x2="150.0005" y2="3.7699">
						<stop  offset="0" style="stop-color:#FFFFFF"/>
						<stop  offset="0.1919" style="stop-color:#00AEEF"/>
						<stop  offset="1" style="stop-color:#2E3192"/>
					</linearGradient>
					<polygon class="st12" points="141.4,55.9 141.4,13 126.1,13 126.1,2 173.9,2 173.9,13 158.6,13 158.6,55.9 					"/>
					<path class="st1" d="M172.9,3v9h-15.4v43h-15.1V12h-15.4V3H172.9 M174.9,1h-2h-45.9h-2v2v9v2h2h13.4v41v2h2h15.1h2v-2V14h13.4
						h2v-2V3V1L174.9,1z"/>
				</g>
				<g>
					<linearGradient id="SVGID_4_" gradientUnits="userSpaceOnUse" x1="202.2661" y1="29.8569" x2="202.2661" y2="3.7699">
						<stop  offset="0" style="stop-color:#FFFFFF"/>
						<stop  offset="0.1919" style="stop-color:#00AEEF"/>
						<stop  offset="1" style="stop-color:#2E3192"/>
					</linearGradient>
					<path class="st13" d="M209.1,55.9V31.4h-13.6v24.6h-17.1V2h41.7v6.1h6.1v17.1h-6.1v1.3h6.1v29.4H209.1z M209.1,20.4V13h-13.6
						v7.4H209.1z"/>
					<path class="st1" d="M219.1,3v6.1h6.1v15.1h-6.1v3.3h6.1v27.4h-15.1V30.4h-15.6v24.6h-15.1V3H219.1 M194.5,21.4h15.6V12h-15.6
						V21.4 M221.1,1h-2h-39.7h-2v2v51.9v2h2h15.1h2v-2V32.4h11.6v22.6v2h2h15.1h2v-2V27.5v-1.3v-2V9.1v-2h-2h-4.1V3V1L221.1,1z
						 M196.5,14h11.6v5.4h-11.6V14L196.5,14z"/>
				</g>
				<g>
					<linearGradient id="SVGID_5_" gradientUnits="userSpaceOnUse" x1="254.5327" y1="29.8569" x2="254.5327" y2="3.7699">
						<stop  offset="0" style="stop-color:#FFFFFF"/>
						<stop  offset="0.1919" style="stop-color:#00AEEF"/>
						<stop  offset="1" style="stop-color:#2E3192"/>
					</linearGradient>
					<path class="st14" d="M236.7,55.9v-6.1h-6.1V8.1h6.1V2h35.6v6.1h6.1v41.7h-6.1v6.1H236.7z M261.3,44.9V13h-13.6v32H261.3z"/>
					<path class="st1" d="M271.3,3v6.1h6.1v39.7h-6.1v6.1h-33.6v-6.1h-6.1V9.1h6.1V3H271.3 M246.7,45.9h15.6V12h-15.6V45.9 M273.3,1
						h-2h-33.6h-2v2v4.1h-4.1h-2v2v39.7v2h2h4.1v4.1v2h2h33.6h2v-2v-4.1h4.1h2v-2V9.1v-2h-2h-4.1V3V1L273.3,1z M248.7,14h11.6v30
						h-11.6V14L248.7,14z"/>
				</g>
			</g>
			<g>
				<linearGradient id="SVGID_6_" gradientUnits="userSpaceOnUse" x1="30.1016" y1="32.665" x2="30.1016" y2="54.0618">
					<stop  offset="0" style="stop-color:#262262"/>
					<stop  offset="0.1919" style="stop-color:#92278F"/>
					<stop  offset="1" style="stop-color:#262262"/>
				</linearGradient>
				<rect x="22.5" y="30.4" class="st15" width="15.1" height="24.6"/>
				<linearGradient id="SVGID_7_" gradientUnits="userSpaceOnUse" x1="60.842" y1="32.665" x2="60.842" y2="54.0618">
					<stop  offset="0" style="stop-color:#262262"/>
					<stop  offset="0.1919" style="stop-color:#92278F"/>
					<stop  offset="1" style="stop-color:#262262"/>
				</linearGradient>
				<rect x="53.3" y="30.4" class="st16" width="15.1" height="24.6"/>
				<linearGradient id="SVGID_8_" gradientUnits="userSpaceOnUse" x1="97.7341" y1="32.665" x2="97.7341" y2="54.0618">
					<stop  offset="0" style="stop-color:#262262"/>
					<stop  offset="0.1919" style="stop-color:#92278F"/>
					<stop  offset="1" style="stop-color:#262262"/>
				</linearGradient>
				<polygon class="st17" points="74.8,54.9 120.7,54.9 120.7,45.9 89.9,45.9 89.9,30.4 74.8,30.4 				"/>
				<linearGradient id="SVGID_9_" gradientUnits="userSpaceOnUse" x1="150.0087" y1="32.665" x2="150.0087" y2="54.0618">
					<stop  offset="0" style="stop-color:#262262"/>
					<stop  offset="0.1919" style="stop-color:#92278F"/>
					<stop  offset="1" style="stop-color:#262262"/>
				</linearGradient>
				<rect x="142.4" y="30.4" class="st18" width="15.1" height="24.6"/>
				<linearGradient id="SVGID_10_" gradientUnits="userSpaceOnUse" x1="217.6401" y1="32.665" x2="217.6401" y2="54.0618">
					<stop  offset="0" style="stop-color:#262262"/>
					<stop  offset="0.1919" style="stop-color:#92278F"/>
					<stop  offset="1" style="stop-color:#262262"/>
				</linearGradient>
				<rect x="210.1" y="30.4" class="st19" width="15.1" height="24.6"/>
				<linearGradient id="SVGID_11_" gradientUnits="userSpaceOnUse" x1="186.9" y1="32.665" x2="186.9" y2="54.0618">
					<stop  offset="0" style="stop-color:#262262"/>
					<stop  offset="0.1919" style="stop-color:#92278F"/>
					<stop  offset="1" style="stop-color:#262262"/>
				</linearGradient>
				<rect x="179.3" y="30.4" class="st20" width="15.1" height="24.6"/>
				<linearGradient id="SVGID_12_" gradientUnits="userSpaceOnUse" x1="254.5325" y1="32.665" x2="254.5325" y2="54.0618">
					<stop  offset="0" style="stop-color:#262262"/>
					<stop  offset="0.1919" style="stop-color:#92278F"/>
					<stop  offset="1" style="stop-color:#262262"/>
				</linearGradient>
				<polygon class="st21" points="262.3,45.9 246.7,45.9 246.7,30.4 231.6,30.4 231.6,48.8 237.7,48.8 237.7,54.9 271.3,54.9 
					271.3,48.8 277.5,48.8 277.5,30.4 262.3,30.4 				"/>
			</g>
			<linearGradient id="SVGID_13_" gradientUnits="userSpaceOnUse" x1="139.3502" y1="51.1161" x2="130.3449" y2="83.8196">
				<stop  offset="0.1189" style="stop-color:#F26522"/>
				<stop  offset="0.6378" style="stop-color:#BE1E2D"/>
			</linearGradient>
			<path class="st22" d="M157.5,60.6c-1.7,1.7-3.3,3.4-5,5.1c-2.4,2.2-4.8,4.3-7.1,6.6c-0.9,0.9-1.4,2.2-2.2,3.3
				c-0.4,0.6-0.8,1.1-1.3,1.6c-0.8,0.7-1.8,1.1-1.5,2.6c0.1,0.3-0.5,1.1-0.9,1.3c-2.6,1.2-5.2,2.7-8,3.4c-1.6,0.4-3.5-0.3-5.4-0.6
				c0.1,1.4,0,2.7-1.8,3c-0.3,0-0.4,0.9-0.6,1.3c-0.4,1.4-1.3,1.8-2.4,0.8c-4.8-3.9-9.6-7.8-14.4-11.7c-0.5-0.4-0.8-1.1-1.4-1.6
				c-0.8-0.7-1.7-1.2-2.5-1.8c-0.5-0.4-1.1-0.7-1.9-1.2c-2.5,1.2-5.2,2.5-7.9,3.8c-0.3,0.2-0.8,0.5-1,0.4c-2.5-1.2-4.2,0.7-6.2,1.6
				c-2.4,1.1-4.6,2.4-7,3.6c-0.3,0.1-0.6,0.4-0.9,0.3c-3.5-0.9-5.8,1.6-8.5,2.9c-1.1,0.5-2.2,1-3.3,1.4c-0.1-0.2-0.2-0.3-0.3-0.5
				c0.2-0.4,0.5-0.7,0.7-1.1c-0.6-0.4-1.2-0.8-1.7-1.2c-1.4,0.6-2.8,1.2-4.3,1.8c-0.1-0.2-0.2-0.4-0.4-0.6c1-2.4,2.9-4.2,5-5.6
				c6-4.2,12.2-8.1,18.3-12.1c2.3-1.5,4.8-2.6,7.2-3.9c1.8-1,2.2-2.6,0.8-4.5c-1.8-2.4-3.8-4.7-6-6.7c-3-2.6-4.7-5.8-5.2-9.6
				c-0.3-1.8,0.1-3.4,1.9-4.4c1.8-1,3.7-1.3,5.2-0.1c2.7,2.1,5.2,4.5,7.5,6.9c2.5,2.6,4.7,5.3,7.1,8c0.9,1,1.9,1.1,3.2,0.3
				c5.1-3.5,10.1-7.2,15.4-10.3c3.5-2.1,7.3-3.5,11.2-4.8c3.6-1.2,5.5,0.4,5.4,4.2c0,0.4,0.1,0.9,0.1,1.5c2.6-1.3,5-2.6,7.4-3.7
				c4.4-2,9.1-3,14-2.3c1.3,0.2,2.8,0.6,3.8,1.5c1.2,1,2.4,1.2,3.9,1.2c2.6-0.1,5.1,0.1,7.7-0.1c1.6-0.1,3.2-0.6,4.8-0.8
				c0.9-0.1,1.8-0.2,2.6,0c4.6,0.9,9.3,1.7,13.9,2.7c4.4,1,8.3,2.7,11.1,6.5c2,2.7,2.2,5.1,0.2,7.9c-0.8,1.2-1.9,2.3-3.1,3.1
				c-3.2,2.3-6.4,4.8-9.9,6.4c-4.6,2.1-9.6,3.3-14.4,4.9c-1.5,0.5-2.9,1-4.4,1.3c-3.3,0.7-4,3.9-5.8,6c-1.9,2.2-3.6,4.6-5.3,7
				c-1.5,2.1-3.8,1.5-5.7,1.9c-0.7,0.2-1.5-0.3-2.5-0.5c-0.5-2.9,0-5.9,0.8-8.9c0.7-2.5,0.7-2.5-2.1-3.4c1.5-1.6,2.9-3.1,4.2-4.7
				c2-2.4,4.3-4.6,5.8-7.3c2.1-3.7,3.6-7.6,5.3-11.5c0.7-1.5,0-2.7-1.6-3.3c-2.9-1.1-5.6,0.1-7.1,2.7c-1,1.7-2.4,3.3-3.8,4.6
				c-0.7,0.6-2.2,0.8-3,0.4c-0.7-0.4-1.2-1.8-1.2-2.8c0-1.4,0.6-2.7,0.8-4.1c0.4-2-0.4-2.6-2.3-2c-5.1,1.5-8.9,4.9-12.8,8.2
				c-4,3.4-7.5,7.3-9.5,12.3c-0.4,0.9-0.6,1.8-0.9,2.7c-0.4,1.3-1.2,2.7,0.1,3.9c1.5,1.3,3.4,1.8,5.2,0.9c2.9-1.5,5.8-3.2,8.5-5.1
				c4.3-2.9,8.5-6,12.8-9c0.6-0.4,1.3-0.7,2-1C157.1,60,157.3,60.3,157.5,60.6z M180.8,59.6c1.3-0.6,2.3-1.1,3.3-1.6
				c3.2-1.6,6.4-3.1,9.6-4.7c0.4-0.2,0.6-0.9,0.9-1.3c-0.4-0.3-0.9-0.8-1.3-0.8c-2.1-0.3-4.3-0.6-6.5-0.7c-3.7-0.2-7.4,4.1-6.8,7.8
				C180.1,58.6,180.5,59,180.8,59.6z M116.3,71.4c1.6-4.3,3-8.2,4.4-12c-2.4,1.4-5.1,2.8-7.6,4.6c-0.6,0.4-1,1.9-0.8,2.6
				C113.1,68.7,114.8,70.2,116.3,71.4z"/>
		</g>
	</g>
</g>
</svg>
