<?xml version="1.0" encoding="utf-8"?>
<!-- Generator: Adobe Illustrator 22.1.0, SVG Export Plug-In . SVG Version: 6.00 Build 0)  -->
<svg version="1.1" id="Layer_1" xmlns="http://www.w3.org/2000/svg" xmlns:xlink="http://www.w3.org/1999/xlink" x="0px" y="0px"
	 viewBox="0 0 500 500" style="enable-background:new 0 0 500 500;" xml:space="preserve">
<style type="text/css">
	.st0{fill:#E6E7E8;}
	.st1{fill:#FFFFFF;}
	.st2{fill:none;}
	.st3{fill:#E6E6E6;}
	.st4{fill:#808285;}
	.st5{fill:#1B75BC;}
	.st6{fill:#FBB040;}
	.st7{fill:#ED1C24;}
	.st8{fill:#006838;}
	.st9{fill:#BCBEC0;}
	.st10{fill:url(#SVGID_1_);}
	.st11{fill:url(#SVGID_2_);}
	.st12{fill:url(#SVGID_3_);}
	.st13{fill:url(#SVGID_4_);}
	.st14{fill:url(#SVGID_5_);}
	.st15{fill:url(#SVGID_6_);}
	.st16{fill:url(#SVGID_7_);}
	.st17{fill:url(#SVGID_8_);}
	.st18{fill:url(#SVGID_9_);}
	.st19{fill:url(#SVGID_10_);}
	.st20{fill:url(#SVGID_11_);}
	.st21{fill:url(#SVGID_12_);}
	.st22{fill:url(#SVGID_13_);stroke:#FFFFFF;stroke-width:2;stroke-miterlimit:10;}
</style>
<g>
	<g>
		<path class="st0" d="M392.1,224.2l2.6-4.1c-21.5-14-47.8-17.1-71.7-8.7H177.4c-23.9-8.4-50.2-5.4-71.7,8.7l2.5,3.9
			c-11.7,7.7-21.5,18.6-27.8,32.3c-17.7,38.6-0.7,84.3,37.9,102c29.5,13.5,63.1,6.8,85.3-14.4h93c6,5.8,13.1,10.7,21.2,14.4
			c38.6,17.7,84.3,0.7,102-37.9C435.7,285.5,423.2,244.8,392.1,224.2z"/>
		<path class="st1" d="M392.1,208.6l2.6-4.1c-21.5-14-47.8-17.1-71.7-8.7H177.4c-23.9-8.4-50.2-5.4-71.7,8.7l2.5,3.9
			c-11.7,7.7-21.5,18.6-27.8,32.3c-17.7,38.6-0.7,84.3,37.9,102c29.5,13.5,63.1,6.8,85.3-14.4h93c6,5.8,13.1,10.7,21.2,14.4
			c38.6,17.7,84.3,0.7,102-37.9C435.7,269.9,423.2,229.1,392.1,208.6z"/>
		<g>
			<path class="st2" d="M328.6,227.4c-4.2,3.9-4.5,10.6-0.3,14.8c4.1,4.2,10.5,4.1,14.7,0.1c4.2-4.3,4.2-10.5,0.2-14.7
				C339,223.6,332.8,223.6,328.6,227.4z"/>
		</g>
		<g>
			<path class="st2" d="M377.6,243.6c4.1-3.9,4.3-10.3,0.4-14.6c-4.2-4-10.1-4.7-14.9-0.2c-3.9,3.7-4.4,10-0.1,14.5
				C366.8,247.4,373.3,247.7,377.6,243.6z"/>
		</g>
		<g>
			<path class="st2" d="M372.5,289.9c-4.2,3.7-4.8,10.3-0.5,14.8c3.8,4,10.1,4.5,14.6,0.4c4-4,4.5-10.2,0.4-14.6
				C383.1,286.2,376.9,286,372.5,289.9z"/>
		</g>
		<g>
			<path class="st2" d="M383.2,257c-4.2,3.9-4.5,10.4-0.6,14.5c4.4,4.7,10.6,4.7,15,0.4c3.9-3.7,4.5-9.8,0.2-14.3
				C394.3,253.4,387.4,253.1,383.2,257z"/>
		</g>
		<g>
			<path class="st3" d="M150.2,317.2c-6.2,0-12.5-1.3-18.4-4c-10.8-4.9-19-13.8-23.1-24.9c-4.1-11.1-3.7-23.2,1.3-34
				c4.9-10.8,13.8-19,24.9-23.1c11.1-4.1,23.2-3.7,34,1.3c22.3,10.2,32.1,36.6,21.9,58.9l0,0C183.2,307.6,167.1,317.2,150.2,317.2z"
				/>
			<g>
				<path class="st4" d="M175.3,264.3h-15.7v-15.7c0-2.3-1.9-4.2-4.2-4.2h-8.1c-2.3,0-4.2,1.9-4.2,4.2v15.7h-15.7
					c-2.3,0-4.2,1.9-4.2,4.2v8c0,2.3,1.9,4.2,4.2,4.2h15.7v15.7c0,2.3,1.9,4.2,4.2,4.2h8.1c2.3,0,4.2-1.9,4.2-4.2v-15.7h15.7
					c2.3,0,4.2-1.9,4.2-4.2v-8C179.5,266.2,177.7,264.3,175.3,264.3z"/>
			</g>
		</g>
		<path class="st3" d="M409.4,255.8c-1.1-4-2.9-7.7-4.5-11.5c-2.1-4.9-5.3-9.3-8.7-13.3c-4-4.7-8.6-8.7-13.7-12.2
			c-6.5-4.3-13.4-7.6-21-9.3c-5.4-1.2-10.9-1.9-16.5-1.5c-3.2,0.3-6.3,1-9.5,1.6c-4.1,0.7-7.9,2.4-11.5,4.3
			c-0.7,0.4-1.4,0.8-2.1,1.2c-2.8,1.7-5.4,3.6-7.7,6c-3.6,3.6-6.3,7.8-7.9,12.5c-1.1,3.4-1.6,7-2,10.6c-0.6,5,0.6,9.8,2.5,14.5
			c2,5,5.4,9.1,8.4,13.5c1.8,2.6,3.7,5,4,8.4c0.3,3.3-1.9,7.8-4.7,9.5c-2.5,1.6-5.2,1.7-8,1.6c-4.5-0.2-8.3,2.8-9.6,6
			c-1.6,3.9-1.1,7.6,1.5,11.1c4,5.6,8.8,10.4,14.4,14.3c2.9,2,5.9,3.8,9.1,5.3c2.1,1,4.2,1.9,6.5,2.6c5.6,1.9,11.2,3.2,17.1,3.5
			c4.6,0.2,9.2,0.1,13.8-0.7c2.5-0.4,5-1.2,7.4-1.8c4.5-1.1,8.8-3,12.8-5.3c5.2-2.9,9.9-6.4,12.7-9.3c6.4-6.5,10.5-12.3,13.5-18.9
			c2.1-4.6,3.7-9.3,4.7-14.2C412.3,274.8,411.9,265.2,409.4,255.8z"/>
		<g>
			<g>
				<path class="st4" d="M220.1,310L220.1,310c-1.5-1.5-1.5-3.9,0-5.3l12.7-12.7c1.5-1.5,3.9-1.5,5.3,0l0,0c1.5,1.5,1.5,3.9,0,5.3
					L225.5,310C224,311.5,221.6,311.5,220.1,310z"/>
			</g>
			<g>
				<path class="st4" d="M261.9,310L261.9,310c-1.5-1.5-1.5-3.9,0-5.3l12.7-12.7c1.5-1.5,3.9-1.5,5.3,0l0,0c1.5,1.5,1.5,3.9,0,5.3
					L267.2,310C265.7,311.5,263.3,311.5,261.9,310z"/>
			</g>
		</g>
		<path class="st5" d="M387.7,232c0.4,0.3,0.7,0.7,1.1,1c0,0,0.1-0.1,0.1-0.1c-0.6-0.7-1.2-1.4-1.8-2c0,0,0-0.1,0.1-0.1
			c0.1,0.1,0.3,0.2,0.4,0.3c0.1,0.1,0.3,0.2,0.4,0.3c0.8,1,1.8,1.9,2.4,3c0.6,1,0.9,2.1,1.2,3.2c0.4,1.3,0.8,2.6,0.9,4
			c0.2,3.9-1.1,7.4-3.4,10.5c-0.4,0.6-1.1,1-1.7,1.4c-1.5,0.9-3,1.8-4.6,2.5c-0.7,0.3-1.7,0-2.6,0c-0.1,0-0.1-0.1-0.2-0.1
			c-1.2,0.1-2.4,0.2-3.6,0.4c-3.5,0.6-6.9,0.3-9.7-2.2c-0.9-0.8-1.6-2-2.3-3c-0.2-0.2-0.1-0.6-0.1-0.9c-0.1-0.4-0.1-0.9-0.2-1.3
			c-0.2-0.7-0.5-1.5-0.7-2.2c-0.1-0.2,0-0.5,0-0.6c-0.1-0.6-0.3-1.1-0.3-1.5c0-0.4,0.1-0.9,0.1-1.3c0-0.5,0.2-0.5,0.4-0.4
			c0.1,1,0.1,1.8,0.2,2.6c0.2,0.1,0.4,0.1,0.7,0.2c0.1-0.5,0.2-1,0.2-1.5c0-0.4,0.1-0.8,0-1.1c-0.1-0.5,0.3-1.1-0.1-1.7
			c-0.2-0.4,0.1-1.1,0.3-1.6c0.4-1.4,0.7-2.8,1.1-4.2c0.1-0.4,0.5-0.8,0.7-1.2c0.4-0.7,0.7-1.5,1.2-2.1c0.6-0.7,1.2-1.6,1.9-2
			c1.2-0.7,2.5-1.1,3.8-1.6c0.2-0.1,0.4,0,0.6,0.1c0.1,0,0.3,0.1,0.4,0.1c1.4-0.1,2.8-0.2,4.2-0.3c0.7,0,1.4,0.1,2,0.3
			c1.6,0.4,3.1,0.9,4.7,1.4c0.4,0.1,0.7,0.4,1.1,0.6c-0.1,0.1-0.1,0.2-0.2,0.3c-0.4-0.3-0.9-0.6-1.3-0.9c0,0-0.1,0.1-0.1,0.1
			c0.1,0.2,0.2,0.4,0.4,0.5c1.1,0.8,2.4,1.4,3.1,2.6c0.7,1.1,1.2,2.4,1.9,3.5c0.8,1.2,0.9,2.5,1.2,3.8c0.1,0,0.2,0,0.3-0.1
			c-0.2-1-0.4-2.1-0.7-3.1c-0.3-1-0.5-2.1-1.4-2.9C388.8,233.9,388.3,232.9,387.7,232C387.6,232,387.7,232,387.7,232z M383.1,232
			c-0.1,0.1-0.1,0.2-0.2,0.3c0.5,0.3,1,0.6,1.5,1c0.1-0.1,0.1-0.2,0.2-0.3C384.1,232.6,383.6,232.3,383.1,232z"/>
		<path class="st6" d="M394.9,271.8c0.9,0.5,1.1,1.4,1.4,2.4c0.2,0.9,0.6,1.8,0.7,2.7c0.2,1,0.3,2.1,0.4,3.2c0-0.9,0.1-1.8,0.1-2.7
			c0.1,0.1,0.2,0.3,0.2,0.4c0.1,1.6,0.4,3.3-0.4,4.8c-0.5,0.9-1,1.8-1,2.7c-0.1,1.4-1.2,2.2-1.9,3.1c-0.8,1-1.9,1.9-3,2.7
			c-0.9,0.7-1.8,1.2-2.8,1.8c-1.3,0.8-2.7,0.6-4.1,0.6c-1.8,0-3.5-0.3-5.3-0.8c-0.1,0-0.2-0.1-0.3-0.2c0.1,0,0.2-0.1,0.4-0.1
			c-0.5-0.2-0.9-0.4-1.4-0.6c0.1-0.1,0.2-0.2,0.3-0.3c-0.1,0-0.2-0.1-0.2-0.1c-0.7,0.4-0.9-0.1-1.2-0.6c-0.2-0.3-0.5-0.6-0.7-0.9
			c-0.4-0.4-0.7-0.9-1.1-1.2c-0.7-0.5-0.4-1.3-0.7-1.9c-0.2-0.4-0.5-0.8-0.7-1.2c-0.1-0.2-0.1-0.4-0.2-0.6c-0.2-1.7-0.2-3.4,0-5.1
			c0-0.1,0-0.2-0.1-0.3c-0.1,0.2-0.2,0.4-0.2,0.7c-0.1,1-0.2,1.9-0.4,2.9c0,0.3-0.2,0.6-0.4,0.9c-0.1,0-0.1,0-0.2,0
			c0-0.2-0.1-0.3-0.1-0.5c0-1,0.1-1.9-0.1-2.9c-0.1-0.4-0.1-0.6,0.1-1c0.2-0.4,0.4-0.7,0.5-1.1c0.1-0.2,0.2-0.5,0.4-0.9
			c-0.3,0.1-0.4,0.2-0.6,0.2c0-1,0.5-1.9,1.2-2.6c0.7-0.7,1.4-1.5,2-2.2c-0.3-0.1-0.4-0.3,0-0.6c2.5-1.6,5-3,7.9-3.5
			c0.8-0.1,1.7-0.1,2.5-0.1c0.8-0.1,1.6-0.2,2.4-0.2c1.7,0.1,3.2,0.6,4.8,1.4C394.2,270.5,394.5,271.1,394.9,271.8
			c-0.1,0-0.2-0.1-0.2-0.2c-0.5-0.6-1-1.3-1.8-1.4c-0.1,0-0.2-0.1-0.4-0.2c-0.5-0.2-1-0.5-1.4-0.7c0,0.1-0.1,0.2-0.1,0.2
			c0.5,0.3,1.1,0.6,1.6,0.9c0,0,0,0.1-0.1,0.1c-0.5-0.2-1.1-0.5-1.6-0.7c-0.7-0.2-1.4-0.4-2.1-0.6c0,0.1-0.1,0.2-0.1,0.3
			c0.7,0.1,1.5,0.2,2.2,0.3c0.6,0.4,1.1,0.9,1.7,1c0.9,0.2,0.9,1.1,1.4,1.5c0.2,0.2,0.2,0.5,0.4,0.8c0.4,0.6,0.9,1.1,0.9,1.8
			c0,0.3,0.1,0.6,0.1,0.8c0.3,0.9,0.9,1.7,0.8,2.7c0,0.2,0.1,0.4,0.1,0.7c0.1-0.6,0.3-1.2,0.3-1.7c-0.1-0.4,0.3-1.1-0.5-1.3
			c-0.2-0.1-0.3-0.7-0.4-1.1c-0.1-0.6-0.5-1.2-0.3-2C395.5,272.7,395.1,272.2,394.9,271.8z M373.5,284.3c0,0,0.1,0,0.1,0
			c0-1.1,0-2.2,0-3.3c0,0-0.1,0-0.1,0C373.5,282.1,373.5,283.2,373.5,284.3z"/>
		<path class="st7" d="M347.5,321.4c0.3,0,0.6-0.1,0.9,0c0.3,0.1,0.6,0.3,1,0.6c-0.5-0.8-1-1.4-1.4-2c-1.3-2.2-1.9-4.5-1.8-7
			c0-0.9,0.1-1.9,0.2-2.8c0-0.3,0.4-0.7,0.4-1c-0.1-1,0.5-1.6,0.9-2.4c-0.4,0.5-0.9,1-1.3,1.5c0.1-0.9,0.6-1.5,1.2-2.1
			c0.7-0.7,1.3-1.5,2-2.2c0.5-0.5,1.2-0.8,1.7-1.3c1-0.8,2-1.4,3.2-1.9c0.9-0.3,1.7-0.8,2.6-1.1c0.2,0,0.3-0.2,0.4-0.2
			c0.5,0,1-0.1,1.4-0.1c0.2,0,0.4-0.2,0.6-0.2c1,0.2,2,0.5,3.1,0.5c0.9,0,1.8,0.3,2.5,0.7c1.6,0.9,3.2,1.7,4.5,3.1
			c0.7,0.8,1.1,1.6,1.6,2.5c0,0-0.1,0.1-0.1,0.1c-0.4-0.6-0.9-1.1-1.3-1.7c0,0-0.1,0.1-0.1,0.1c0.3,0.6,0.5,1.1,0.8,1.7
			c0.3,0.6,0.5,1.1,0.3,1.8c-0.1,0.5,0.1,1.1,0.1,1.7c0,1.4-0.1,2.8-0.2,4.1c0,0.7-0.1,1.3-0.2,2c-0.1,0.4-0.2,0.7-0.3,1.1
			c-0.1,0.6-0.2,1.2-0.2,1.8c0.5-1.1,1.1-2.2,1.6-3.3c-0.8,2.1-1.5,4.3-3.4,5.8c-0.1,0.1-0.2,0.3-0.3,0.5c0,0,0,0.1,0,0.1
			c-1.2-0.1-0.3,1.2-0.9,1.5c-0.1,0.1-0.2,0.3-0.3,0.4c-0.8,0.3-1.5,0.5-2.3,0.8c-0.8,0.3-1.6,0.6-2.4,0.9c0.1,0.2,0.1,0.3,0.2,0.5
			c-0.5,0-1,0.1-1.5,0.1c-0.3,0-0.6-0.2-0.9-0.2c-1.6,0.2-3.2,0-4.8-0.5c-1.1-0.3-2.2-0.6-3.3-0.9c-1.4-0.3-2.5-1.1-3.4-2.2
			c-0.1-0.1-0.3-0.1-0.4-0.2C347.6,321.9,347.3,321.7,347.5,321.4L347.5,321.4z M370.4,307.8c-0.2,1.2-0.1,2.7,0.3,3.1
			c0-0.6,0-1.2,0-1.8C370.6,308.8,370.5,308.4,370.4,307.8z"/>
		<path class="st8" d="M338,251.7c1.1-0.1,2.2-0.2,3.4-0.4c0.1,0,0.1,0,0.2,0c0,0.1,0.1,0.2,0.1,0.2c-0.8,0.2-1.5,0.5-2.3,0.7
			c0,0.1,0,0.1,0,0.2c0.8,0,1.7,0,2.5,0c0,0.1,0,0.1,0,0.2c-0.4,0.1-0.8,0.2-1.1,0.2c-1.5,0.1-3,0.1-4.5,0.2c-0.5,0-1.1,0.1-1.6,0.2
			c-1.7,0.5-3.4,0.1-5.1-0.2c-1.1-0.2-2.2-0.7-3.4-0.3c-0.3,0.1-0.7-0.2-1.1-0.5c-0.3-0.2-0.6-0.5-0.8-0.7c0.2-0.1,0.7-0.4,1.2-0.7
			c-0.7-0.4-1.2-0.7-1.7-1.1c0-0.1,0-0.2,0.1-0.2c1.1,0.3,2.2,0.6,3.2,0.9c0-0.1,0.1-0.2,0.1-0.3c-0.9-0.4-1.8-0.9-2.7-1.3
			c-0.2-0.2-0.6,0.6-0.7-0.4c0-0.4-0.9-0.6-1.2-1c-1.1-1.3-2.1-2.6-3.1-3.9c0.8-0.4,0.3-0.9,0.2-1.3c-0.1-0.4-0.5-0.8-0.6-1.3
			c0.2,0.1,0.4,0.1,0.5,0.2c0-0.3,0.1-0.5,0.1-0.8c-0.2-2.3-0.4-4.5-0.6-6.9c1,0,1.2-0.6,1.2-1.4c0-0.6,0.3-1,0.7-1.4
			c0.7-0.7,1.1-1.6,1.7-2.5c0-0.1,0.1-0.1,0.2-0.2c1.3-0.9,2.6-1.8,3.9-2.7c0.9-0.6,1.9-1.1,2.8-1.7c0-0.1-0.1-0.2-0.1-0.3
			c-0.5,0.2-1.1,0.4-1.6,0.6c0,0-0.2-0.2-0.3-0.2c-0.2,0-0.4,0.1-0.6,0.2c-0.8,0.3-1.6,0.7-2.6,1.1c0.1-0.5,0.2-0.6,0.3-1
			c-0.9,0.4-1.7,0.8-2.6,1.2c0.3-0.3,0.6-0.7,0.9-1.1c-1.5,0.3-2.4,1.3-3.3,2.3c0.8-1.2,1.5-2.6,3-3.1c0.2,0,0.5,0.1,0.6,0
			c0.8-0.4,1.6,0.2,2.4-0.3c0.4-0.2,0.9-0.3,1.3-0.4c1.4-0.4,2.7-0.8,4.1-1.1c0.6-0.1,1.3-0.2,2,0.2c0.3,0.2,1-0.1,1.5-0.1
			c1.1,0,2.1,0,3.1,0.6c0.2-0.1,0.4-0.3,0.6-0.4c0.2,0.2,0.4,0.3,0.6,0.5c-0.1-0.6-1.5-1.6-2.1-1.6c-1.7-0.1-3.3-0.2-5-0.3
			c-0.5,0-1-0.1-1.5,0c-2,0.5-4,1.1-6,1.6c0.4-0.3,0.9-0.6,1.3-0.9c0.4-0.2,0.8-0.4,1.1-0.6c0.6-0.4,1.1-1,2-0.9
			c1.9,0.2,3.9,0.2,5.8,0.4c2.7,0.3,5.5,0.7,7.8,2.3c1.2,0.8,2.2,1.8,3.5,2.8c-0.4,0.1-0.6,0.1-1,0.2c1.2,1.7,2.4,3.4,3.6,5
			c0.1-0.1,0.2-0.1,0.3-0.2c-0.1-0.4-0.3-0.9-0.4-1.3c0.1,0,0.2-0.1,0.3-0.1c0.3,0.8,0.7,1.6,1,2.4c0.2,0.6,0.8,0.9,1.5,0.5
			c0.7,2.8,0.2,5.4-0.7,8.1c0-0.4,0.1-0.7,0.1-1.1c-0.1,0-0.2-0.1-0.3-0.1c-0.4,0.9-1,1.9-1.1,2.9c-0.1,1.2-0.8,2.1-1.3,3
			c-0.4,0.7-1,1.2-1.4,1.9c-1.1,1.5-2.7,2.4-4.4,3c-0.4,0.1-0.7,0.5-1.1,0.8c-0.4,0.3-0.8,0.5-1.4,0.6c0.3-0.2,0.7-0.5,1.2-0.8
			c-2.9,0.3-5.5,0.6-8.1,0.9c0,0.2,0,0.3,0,0.6c-1-0.2-2-0.4-3-0.6c-0.1,0.1-0.1,0.2-0.2,0.3c0.3,0.2,0.6,0.5,1,0.6
			c2.2,0.1,4.5,0.2,6.7,0.2C337.4,252,337.7,251.8,338,251.7L338,251.7z M349.6,238.7c1-0.9,1.2-3.2,0.4-4.5c0,0.4,0,0.8-0.1,1.1
			c-0.1,0.3-0.2,0.5-0.4,0.8c0.1,0.2,0.4,0.6,0.3,0.7C349.1,237.3,349.8,238,349.6,238.7z M330,225.7c-0.1-0.2-0.2-0.3-0.3-0.5
			c-0.9,0.6-1.8,1.2-2.7,1.8c0,0.1,0.1,0.2,0.1,0.3c0.5-0.1,1.1-0.2,1.7-0.3c-0.4-0.4-0.7-0.7-0.1-0.9
			C329.2,226.1,329.6,225.9,330,225.7z M349.3,233.6c0.1,0,0.2,0,0.2-0.1c0.1-1.5-0.4-2.7-1.3-2.7
			C348.6,231.8,348.9,232.7,349.3,233.6z M321.9,231.9c-0.9,0.5-1,1.4-0.2,3C321.7,233.9,321.8,232.9,321.9,231.9z M350.7,232.5
			c-0.1,0-0.3,0-0.4,0.1c0.1,0.7,0.3,1.3,0.4,2c0.1,0,0.3-0.1,0.4-0.1C351,233.9,350.8,233.2,350.7,232.5z M332.9,249.8
			c0.4,0.2,0.6,0.4,0.8,0.5c0.5-0.3,0.9-0.5,1.4-0.8c0-0.1-0.1-0.1-0.1-0.2C334.3,249.5,333.6,249.6,332.9,249.8z"/>
	</g>
	<g>
		<g>
			<rect x="305.7" y="158.1" class="st9" width="11.7" height="4.4"/>
			<path class="st9" d="M207.6,217.5c-0.1,0.2-0.3,0.9-0.3,1.2c0.4,1.3,1.3,2.4,2.3,3.4l2.8-7.6
				C210.8,215.5,209.2,216.4,207.6,217.5z"/>
			<rect x="121.1" y="158.1" class="st9" width="11.7" height="4.4"/>
			<path class="st9" d="M305.7,179.9v9.9c5.1,1.4,8.9,3.7,11.7,7.2v-17H305.7z"/>
			<rect x="367.3" y="158.1" class="st9" width="11.7" height="33.4"/>
			<path class="st9" d="M157.3,208.8v-3.4v-32.3v-0.5v-3.4v-17.8v-3.4h-3.4H150v-3.9v-3.4h-3.4H99.9h-3.4v3.4v61.3v3.4h3.4h17.8h3.4
				v-3.4v-25.6h11.7v25.6v3.4h3.4h17.8H157.3z M132.7,158.1v4.4h-11.7v-4.4H132.7z"/>
			<path class="st9" d="M334.7,148.1v-3.9v-3.4h-3.4h-46.8h-3.4v3.4v42.3c-1,0.2-1.9,0.4-2.8,0.4c-1.6,0.1-3.3,0.1-5,0.1
				c-1.3,0-2.7,0-4,0c-1.5,0-2.5-0.2-3.4-1c-1.1-0.9-2.5-1.4-3.7-1.8v-26.1H277h3.4v-3.4v-10.6v-3.4H277h-54h-3.4v3.4v10.6v3.4h3.4
				h14.8v31.3c-0.2,0.1-0.4,0.2-0.6,0.3c-0.2,0.1-0.3,0.2-0.5,0.2c-0.2-3-1.4-4.5-2.4-5.3c-1.1-0.8-3-1.5-6.2-0.4
				c-4.2,1.5-9.1,3.3-13.4,5.8c-0.7,0.4-1.5,0.9-2.2,1.4h-27.3c-0.9-0.9-1.7-1.7-2.5-2.5v-9.2H201h3.4v-3.4v-10.6v-3.4H201h-18.4
				v-4.4h32.8h3.4v-3.4v-10.6v-3.4h-3.4h-54h-3.4v3.4v61.3v3.4h3.4h16.3c0.7,0.9,1.5,1.8,2.2,2.7c0.5,0.7,0.8,1.3,0.7,1.7
				c-0.1,0.5-0.6,0.9-1.1,1.1c-1,0.6-2,1.1-3,1.6c-1.8,0.9-3.7,1.9-5.5,3.1c-6.9,4.4-14.3,9.2-21.6,14.3c-3.2,2.2-5.3,4.6-6.4,7.3
				l-0.3,0.8l1.6,2.7l5.4-2.3l-0.5,0.7l1.6,2.7l2.6-1.1c0.9-0.4,1.8-0.8,2.7-1.2c0.9-0.4,1.8-1,2.7-1.5c2.4-1.5,4-2.4,6.2-1.8
				c0.9,0.2,1.6-0.2,2.1-0.4l0.2-0.1c0.9-0.5,1.8-1,2.7-1.4c1.8-0.9,3.6-1.9,5.4-2.8c0.6-0.3,1.2-0.6,1.8-1c1.7-1.1,2.7-1.6,4.1-0.9
				c1,0.5,1.9-0.1,2.4-0.3c0.1,0,0.2-0.1,0.2-0.1l8.5-4.1l0.1,0c0.5,0.3,0.9,0.6,1.3,0.9l0.7,0.5c0.8,0.5,1.5,1,2.1,1.6
				c0.2,0.1,0.3,0.4,0.5,0.6c0.3,0.4,0.6,0.9,1.1,1.2c5.6,4.6,11.3,9.2,17,13.8c0.9,0.7,1.8,1,2.4,1c0.3,0,0.6,0,0.8-0.1
				c0.7-0.2,1.7-0.9,2.3-2.6l0.1-0.4c0-0.1,0-0.1,0.1-0.2c1.5-0.4,2.4-1.5,2.7-3c0.1,0,0.1,0,0.2,0c1.6,0.3,3.3,0.7,5,0.3
				c2.7-0.7,5.3-2,7.8-3.2c0.7-0.3,1.3-0.6,2-0.9c1.1-0.5,2.3-2.1,1.9-3.5c-0.1-0.2,0-0.3,0-0.3c0.1-0.1,0.4-0.4,0.6-0.6
				c0.2-0.1,0.4-0.3,0.6-0.5c0.8-0.7,1.4-1.5,1.9-2.2c0.3-0.5,0.6-1,0.9-1.6c0.5-0.8,0.9-1.6,1.4-2.1c1.5-1.6,3.2-3.1,4.8-4.5
				c1.2-1.1,2.4-2.2,3.5-3.3c1.4-1.4,2.8-2.8,4.1-4.2c0.6-0.6,1.2-1.2,1.8-1.9l1-1l-2.4-3.2l-1.3,0.6c-0.2,0.1-0.5,0.2-0.7,0.3
				c-0.6,0.3-1.3,0.6-1.9,1c-1.9,1.3-3.8,2.7-5.6,4c-3.1,2.2-6.2,4.5-9.4,6.6c-3.1,2.1-6.4,4.1-9.9,5.9c-1.7,0.9-3.2,0-4.2-0.8
				c-0.4-0.4-0.5-0.6,0.1-2.1c0.1-0.2,0.2-0.5,0.2-0.7l0.1-0.4c0.3-0.9,0.6-1.8,0.9-2.6c1.9-4.8,5.3-9.2,10.7-13.8v1.8h3.4h17.8h3.4
				v-3.4v-1c0.8-1,1.5-1.9,2.1-3c1.5-2.5,3.9-3.5,6.4-2.5c0.5,0.2,0.9,0.5,1,0.8c0.1,0.3,0,0.7-0.1,0.9c-0.4,1-0.8,1.9-1.2,2.9
				c-1.5,3.5-3,7.2-4.9,10.5c-1.2,2.2-3,4.1-4.8,6.2c-0.6,0.7-1.3,1.4-1.9,2.2c-1,1.2-2.1,2.4-3.3,3.7c-0.5,0.6-1.1,1.2-1.6,1.8
				l-1.7,1.9l2.4,0.8c0.7,0.2,1.4,0.5,1.8,0.7c-0.1,0.4-0.2,0.9-0.3,1.4c-1.2,4.4-1.6,7.9-1,11.2l0.2,1.1l1.1,0.2
				c0.3,0.1,0.6,0.2,0.9,0.3c0.8,0.2,1.7,0.5,2.7,0.3c0.5-0.1,1.1-0.2,1.7-0.2c1.8-0.1,4.3-0.3,6-2.8c2-2.8,3.9-5.6,6.1-8.1
				c0.7-0.9,1.3-1.8,1.9-2.7c1.3-2.1,2.2-3.4,4.1-3.8c1.5-0.3,3-0.8,4.5-1.3l0.9-0.3c1.6-0.5,3.3-1,5-1.5c4.1-1.2,8.2-2.5,12.2-4.3
				c3.4-1.5,6.5-3.8,9.5-6c0.8-0.6,1.6-1.2,2.5-1.8c1.4-1,2.8-2.4,4-4.1c0,0,0,0,0,0h2.6h17.8h3.4v-3.4v-32.3v-0.5v-3.4v-17.8v-3.4
				h-3.4H334.7z M317.4,158.1v4.4h-11.7v-4.4H317.4z M207.4,218.7c-0.1-0.3,0.1-1.1,0.3-1.2c1.5-1.1,3.2-2,4.8-3l-2.8,7.6
				C208.6,221.1,207.8,220,207.4,218.7z M305.7,189.7v-9.9h11.7v17C314.6,193.4,310.9,191.1,305.7,189.7z"/>
			<path class="st9" d="M400.1,148.1h-3.9v-3.9v-3.4h-3.4h-39.6H350v3.4v3.9h-3.9h-3.4v3.4v46.8v3.4h3.4h3.9v3.9v3.4h3.4h39.6h3.4
				v-3.4v-3.9h3.9h3.4v-3.4v-46.8v-3.4H400.1z M367.3,191.5v-33.4h11.7v33.4H367.3z"/>
		</g>
		<g>
			<g>
				<g>
					<linearGradient id="SVGID_1_" gradientUnits="userSpaceOnUse" x1="126.9067" y1="170.2714" x2="126.9067" y2="139.6778">
						<stop  offset="0" style="stop-color:#FFFFFF"/>
						<stop  offset="0.1919" style="stop-color:#00AEEF"/>
						<stop  offset="1" style="stop-color:#2E3192"/>
					</linearGradient>
					<path class="st10" d="M135.1,200.8v-29h-16.4v29H98.9v-63.3h48.8v7.2h7.2v19.8h-7.2v1.9h7.2v34.3H135.1z M135.1,159.3v-9.1
						h-16.4v9.1H135.1z"/>
					<path class="st1" d="M146.7,138.6v7.2h7.2v17.8h-7.2v3.9h7.2v32.3h-17.8v-29h-18.4v29H99.9v-61.3H146.7 M117.7,160.3h18.4
						v-11.1h-18.4V160.3 M148.7,136.6h-2H99.9h-2v2v61.3v2h2h17.8h2v-2v-27h14.4v27v2h2h17.8h2v-2v-32.3v-1.9v-2v-17.8v-2h-2h-5.2
						v-5.2V136.6L148.7,136.6z M119.7,151.2h14.4v7.1h-14.4V151.2L119.7,151.2z"/>
				</g>
				<g>
					<linearGradient id="SVGID_2_" gradientUnits="userSpaceOnUse" x1="188.4536" y1="170.2714" x2="188.4536" y2="139.6778">
						<stop  offset="0" style="stop-color:#FFFFFF"/>
						<stop  offset="0.1919" style="stop-color:#00AEEF"/>
						<stop  offset="1" style="stop-color:#2E3192"/>
					</linearGradient>
					<polygon class="st11" points="160.4,200.8 160.4,137.6 216.5,137.6 216.5,150.2 180.3,150.2 180.3,159.3 202,159.3 202,171.9 
						180.3,171.9 180.3,188.3 216.5,188.3 216.5,200.8 					"/>
					<path class="st1" d="M215.5,138.6v10.6h-36.2v11.1H201v10.6h-21.7v18.4h36.2v10.6h-54v-61.3H215.5 M217.5,136.6h-2h-54h-2v2
						v61.3v2h2h54h2v-2v-10.6v-2h-2h-34.2v-14.4H201h2v-2v-10.6v-2h-2h-19.7v-7.1h34.2h2v-2v-10.6V136.6L217.5,136.6z"/>
				</g>
				<g>
					<linearGradient id="SVGID_3_" gradientUnits="userSpaceOnUse" x1="250.0005" y1="170.2714" x2="250.0005" y2="139.6778">
						<stop  offset="0" style="stop-color:#FFFFFF"/>
						<stop  offset="0.1919" style="stop-color:#00AEEF"/>
						<stop  offset="1" style="stop-color:#2E3192"/>
					</linearGradient>
					<polygon class="st12" points="240.1,200.8 240.1,150.2 222,150.2 222,137.6 278,137.6 278,150.2 259.9,150.2 259.9,200.8 					
						"/>
					<path class="st1" d="M277,138.6v10.6h-18.1v50.7h-17.8v-50.7H223v-10.6H277 M279,136.6h-2h-54h-2v2v10.6v2h2h16.1v48.7v2h2
						h17.8h2v-2v-48.7H277h2v-2v-10.6V136.6L279,136.6z"/>
				</g>
				<g>
					<linearGradient id="SVGID_4_" gradientUnits="userSpaceOnUse" x1="311.5469" y1="170.2714" x2="311.5469" y2="139.6778">
						<stop  offset="0" style="stop-color:#FFFFFF"/>
						<stop  offset="0.1919" style="stop-color:#00AEEF"/>
						<stop  offset="1" style="stop-color:#2E3192"/>
					</linearGradient>
					<path class="st13" d="M319.7,200.8v-29h-16.4v29h-19.8v-63.3h48.8v7.2h7.2v19.8h-7.2v1.9h7.2v34.3H319.7z M319.7,159.3v-9.1
						h-16.4v9.1H319.7z"/>
					<path class="st1" d="M331.3,138.6v7.2h7.2v17.8h-7.2v3.9h7.2v32.3h-17.8v-29h-18.4v29h-17.8v-61.3H331.3 M302.4,160.3h18.4
						v-11.1h-18.4V160.3 M333.3,136.6h-2h-46.8h-2v2v61.3v2h2h17.8h2v-2v-27h14.4v27v2h2h17.8h2v-2v-32.3v-1.9v-2v-17.8v-2h-2h-5.2
						v-5.2V136.6L333.3,136.6z M304.4,151.2h14.4v7.1h-14.4V151.2L304.4,151.2z"/>
				</g>
				<g>
					<linearGradient id="SVGID_5_" gradientUnits="userSpaceOnUse" x1="373.0938" y1="170.2714" x2="373.0938" y2="139.6778">
						<stop  offset="0" style="stop-color:#FFFFFF"/>
						<stop  offset="0.1919" style="stop-color:#00AEEF"/>
						<stop  offset="1" style="stop-color:#2E3192"/>
					</linearGradient>
					<path class="st14" d="M352.3,200.8v-7.2h-7.2v-48.8h7.2v-7.2h41.6v7.2h7.2v48.8h-7.2v7.2H352.3z M381.3,188.3v-38.1h-16.4v38.1
						H381.3z"/>
					<path class="st1" d="M392.9,138.6v7.2h7.2v46.8h-7.2v7.2h-39.6v-7.2h-7.2v-46.8h7.2v-7.2H392.9 M363.9,189.3h18.4v-40.1h-18.4
						V189.3 M394.9,136.6h-2h-39.6h-2v2v5.2h-5.2h-2v2v46.8v2h2h5.2v5.2v2h2h39.6h2v-2v-5.2h5.2h2v-2v-46.8v-2h-2h-5.2v-5.2V136.6
						L394.9,136.6z M365.9,151.2h14.4v36.1h-14.4V151.2L365.9,151.2z"/>
				</g>
			</g>
			<g>
				<linearGradient id="SVGID_6_" gradientUnits="userSpaceOnUse" x1="108.812" y1="173.5893" x2="108.812" y2="198.825">
					<stop  offset="0" style="stop-color:#262262"/>
					<stop  offset="0.1919" style="stop-color:#92278F"/>
					<stop  offset="1" style="stop-color:#262262"/>
				</linearGradient>
				<rect x="99.9" y="170.9" class="st15" width="17.8" height="29"/>
				<linearGradient id="SVGID_7_" gradientUnits="userSpaceOnUse" x1="145.0108" y1="173.5893" x2="145.0108" y2="198.825">
					<stop  offset="0" style="stop-color:#262262"/>
					<stop  offset="0.1919" style="stop-color:#92278F"/>
					<stop  offset="1" style="stop-color:#262262"/>
				</linearGradient>
				<rect x="136.1" y="170.9" class="st16" width="17.8" height="29"/>
				<linearGradient id="SVGID_8_" gradientUnits="userSpaceOnUse" x1="188.4535" y1="173.5893" x2="188.4535" y2="198.825">
					<stop  offset="0" style="stop-color:#262262"/>
					<stop  offset="0.1919" style="stop-color:#92278F"/>
					<stop  offset="1" style="stop-color:#262262"/>
				</linearGradient>
				<polygon class="st17" points="161.4,199.8 215.5,199.8 215.5,189.3 179.3,189.3 179.3,170.9 161.4,170.9 				"/>
				<linearGradient id="SVGID_9_" gradientUnits="userSpaceOnUse" x1="250.0102" y1="173.5893" x2="250.0102" y2="198.825">
					<stop  offset="0" style="stop-color:#262262"/>
					<stop  offset="0.1919" style="stop-color:#92278F"/>
					<stop  offset="1" style="stop-color:#262262"/>
				</linearGradient>
				<rect x="241.1" y="170.9" class="st18" width="17.8" height="29"/>
				<linearGradient id="SVGID_10_" gradientUnits="userSpaceOnUse" x1="329.6506" y1="173.5893" x2="329.6506" y2="198.825">
					<stop  offset="0" style="stop-color:#262262"/>
					<stop  offset="0.1919" style="stop-color:#92278F"/>
					<stop  offset="1" style="stop-color:#262262"/>
				</linearGradient>
				<rect x="320.7" y="170.9" class="st19" width="17.8" height="29"/>
				<linearGradient id="SVGID_11_" gradientUnits="userSpaceOnUse" x1="293.4521" y1="173.5893" x2="293.4521" y2="198.825">
					<stop  offset="0" style="stop-color:#262262"/>
					<stop  offset="0.1919" style="stop-color:#92278F"/>
					<stop  offset="1" style="stop-color:#262262"/>
				</linearGradient>
				<rect x="284.5" y="170.9" class="st20" width="17.8" height="29"/>
				<linearGradient id="SVGID_12_" gradientUnits="userSpaceOnUse" x1="373.0937" y1="173.5893" x2="373.0937" y2="198.825">
					<stop  offset="0" style="stop-color:#262262"/>
					<stop  offset="0.1919" style="stop-color:#92278F"/>
					<stop  offset="1" style="stop-color:#262262"/>
				</linearGradient>
				<polygon class="st21" points="382.3,189.3 363.9,189.3 363.9,170.9 346.1,170.9 346.1,192.6 353.3,192.6 353.3,199.8 
					392.9,199.8 392.9,192.6 400.1,192.6 400.1,170.9 382.3,170.9 				"/>
			</g>
			<linearGradient id="SVGID_13_" gradientUnits="userSpaceOnUse" x1="237.4659" y1="195.3613" x2="226.8527" y2="233.904">
				<stop  offset="0.1189" style="stop-color:#F26522"/>
				<stop  offset="0.6378" style="stop-color:#BE1E2D"/>
			</linearGradient>
			<path class="st22" d="M258.8,206.5c-2,2-3.9,4.1-5.9,6c-2.8,2.6-5.7,5.1-8.4,7.8c-1.1,1.1-1.7,2.6-2.6,3.9
				c-0.5,0.7-1,1.3-1.6,1.9c-0.9,0.8-2.2,1.3-1.7,3c0.1,0.4-0.5,1.3-1,1.5c-3.1,1.5-6.2,3.2-9.5,4c-1.9,0.5-4.1-0.4-6.3-0.7
				c0.2,1.7,0,3.2-2.2,3.6c-0.3,0-0.5,1-0.7,1.6c-0.5,1.6-1.5,2.1-2.9,1c-5.7-4.6-11.3-9.2-16.9-13.8c-0.6-0.5-1-1.3-1.6-1.9
				c-0.9-0.8-2-1.4-3-2.1c-0.6-0.4-1.3-0.9-2.2-1.5c-2.9,1.4-6.1,2.9-9.4,4.5c-0.4,0.2-0.9,0.6-1.2,0.5c-3-1.4-5,0.8-7.3,1.9
				c-2.8,1.3-5.5,2.8-8.2,4.3c-0.3,0.2-0.7,0.5-1,0.4c-4.1-1.1-6.8,1.9-10,3.4c-1.3,0.6-2.6,1.1-3.9,1.7c-0.1-0.2-0.2-0.4-0.3-0.5
				c0.3-0.4,0.6-0.9,0.9-1.3c-0.7-0.5-1.4-1-2-1.4c-1.7,0.7-3.3,1.4-5,2.1c-0.1-0.2-0.3-0.5-0.4-0.7c1.2-2.8,3.5-4.9,5.8-6.6
				c7.1-4.9,14.3-9.6,21.6-14.2c2.7-1.7,5.7-3.1,8.5-4.6c2.1-1.2,2.6-3.1,0.9-5.3c-2.1-2.8-4.4-5.6-7.1-7.9
				c-3.5-3.1-5.5-6.8-6.2-11.4c-0.3-2.1,0.1-4,2.2-5.2c2.1-1.2,4.4-1.6,6.2-0.1c3.2,2.5,6.1,5.3,8.9,8.2c2.9,3,5.5,6.3,8.3,9.4
				c1.1,1.2,2.3,1.3,3.8,0.3c6-4.2,11.9-8.5,18.1-12.2c4.1-2.4,8.6-4.1,13.1-5.7c4.2-1.5,6.4,0.5,6.4,5c0,0.5,0.1,1,0.1,1.7
				c3-1.5,5.8-3,8.7-4.3c5.2-2.4,10.7-3.6,16.4-2.8c1.6,0.2,3.3,0.8,4.5,1.7c1.4,1.2,2.8,1.4,4.5,1.4c3-0.1,6,0.1,9-0.1
				c1.9-0.1,3.8-0.7,5.7-0.9c1-0.1,2.1-0.2,3.1,0c5.5,1,10.9,2.1,16.3,3.2c5.2,1.1,9.8,3.2,13.1,7.7c2.4,3.2,2.6,6,0.2,9.3
				c-1,1.4-2.2,2.7-3.6,3.7c-3.8,2.7-7.5,5.7-11.7,7.6c-5.4,2.4-11.3,3.9-17,5.8c-1.7,0.6-3.4,1.2-5.2,1.6c-3.9,0.9-4.7,4.6-6.8,7.1
				c-2.3,2.6-4.2,5.4-6.2,8.3c-1.7,2.5-4.4,1.8-6.8,2.3c-0.8,0.2-1.8-0.3-2.9-0.6c-0.6-3.4,0-6.9,1-10.4c0.8-2.9,0.8-2.9-2.5-4.1
				c1.8-1.9,3.4-3.6,5-5.5c2.4-2.8,5-5.5,6.8-8.6c2.5-4.3,4.3-9,6.3-13.6c0.8-1.8,0-3.2-1.8-3.9c-3.4-1.3-6.6,0.1-8.4,3.2
				c-1.2,2-2.8,3.8-4.5,5.4c-0.8,0.7-2.6,1-3.5,0.5c-0.8-0.5-1.4-2.1-1.4-3.3c0-1.6,0.6-3.2,1-4.8c0.4-2.3-0.4-3.1-2.7-2.4
				c-6,1.7-10.5,5.7-15.1,9.6c-4.7,4-8.8,8.6-11.2,14.5c-0.4,1-0.8,2.1-1.1,3.2c-0.5,1.5-1.4,3.2,0.2,4.6c1.8,1.6,4,2.2,6.1,1.1
				c3.4-1.8,6.8-3.8,10-6c5.1-3.4,10-7.1,15-10.7c0.7-0.5,1.6-0.8,2.4-1.2C258.3,205.9,258.6,206.2,258.8,206.5z M286.2,205.3
				c1.5-0.7,2.7-1.3,3.9-1.9c3.8-1.8,7.6-3.6,11.3-5.5c0.5-0.3,0.7-1,1.1-1.5c-0.5-0.3-1-0.9-1.6-1c-2.5-0.4-5.1-0.7-7.6-0.9
				c-4.3-0.2-8.7,4.8-8,9.2C285.5,204.2,285.9,204.6,286.2,205.3z M210.4,219.3c1.9-5,3.6-9.7,5.2-14.2c-2.8,1.7-6,3.3-8.9,5.4
				c-0.7,0.5-1.2,2.2-0.9,3.1C206.6,216.1,208.6,217.9,210.4,219.3z"/>
		</g>
	</g>
</g>
</svg>
